<?xml version="1.0" encoding="utf-8" ?><svg xmlns="http://www.w3.org/2000/svg" xmlns:xlink="http://www.w3.org/1999/xlink" width="1024" height="1024" viewBox="0 0 1024 1024"><path fill="#1A1C7B" d="M176.244 141.684C181.08 141.116 197.832 141.493 203.478 141.5L257.992 141.523L446.849 141.495L621.917 141.496C638.971 141.457 656.024 141.512 673.077 141.659C689.158 141.693 707.375 138.485 718.143 152.948C720.945 156.731 722.826 161.117 723.636 165.755C724.696 172.043 724.476 181.196 724.481 187.71L724.48 216.44C724.475 222.806 724.845 239.261 724.147 244.288C733.37 245.657 741.966 246.955 750.999 249.461C823.416 269.555 873.639 328.007 879.653 402.99C871.876 402.475 857.113 402.951 848.702 403L779.246 403.997C776.179 385.115 769.357 368.568 753.653 356.73C729.016 338.159 692.17 345.247 674.353 370.006C665.699 382.179 662.223 397.288 664.689 412.019C669.277 438.808 689.046 456.303 715.741 458.114C729.279 459.033 741.149 457.742 754.752 460.022C775.257 463.459 792.642 471.226 809.457 483.406C845.154 509.263 872.017 550.847 879.191 594.489C879.949 599.099 881.403 610.39 881.184 614.518C879.498 646.355 867.436 678.8 848.578 704.167C816.561 747.233 777.012 767.324 725.313 775.39C753.417 775.592 781.522 775.636 809.627 775.521C817.99 775.518 826.349 775.541 834.728 775.501C846.418 775.445 858.946 774.982 868.138 783.506C877.766 792.434 879.876 804.951 879.335 817.615C878.596 834.919 883.384 856.6 870.183 870.415C864.754 876.058 856.339 880.202 848.49 880.224C833.917 880.265 819.345 880.125 804.768 880.173L691.275 880.268L636.417 880.225C630.163 880.24 623.263 880.112 617.096 880.301C590.44 881.118 580.279 865.484 579.958 840.64C579.914 834.132 579.906 827.624 579.935 821.117C579.991 808.032 579.679 795.147 589.66 785.096C593.926 780.817 599.358 777.892 605.278 776.684C613.193 775.036 639.581 775.498 649.053 775.528L714.784 775.55C710.112 774.363 701.615 773.241 696.207 772.085C678.616 768.452 661.721 762.027 646.161 753.053C615.455 735.17 591.302 707.901 577.256 675.261C570.326 659.135 566.004 643.37 561.505 626.425C561.578 645.688 561.478 664.951 561.205 684.212L561.034 773.885L561.228 820.283C561.306 828.662 561.838 843.427 560.663 851.132C559.682 857.753 556.672 863.906 552.046 868.743C541.261 879.956 530.824 879.919 516.258 879.273C500.28 878.565 479.309 884.026 466.441 871.335C452.101 857.192 455.64 833.598 455.676 814.997L455.753 750.323L456.019 526.75L456.008 467.983C441.857 492.505 427.448 516.877 412.782 541.095C405.796 552.85 399.129 564.814 391.824 576.374C388.576 581.516 385.891 584.489 379.357 584.472C370.845 584.45 362.225 584.667 353.701 584.385C342.575 584.017 330.697 585.906 319.83 583.559C314.28 582.19 305.091 565.069 301.94 559.831C296.419 550.615 290.85 541.427 285.233 532.269C273.62 513.322 258.504 490.559 247.943 471.473L248.102 606.377C248.109 611.341 248.017 616.415 248.126 621.387C248.893 651.097 245.621 685.249 256.428 713.458C269.959 748.777 306.518 775.834 344.515 776.759C364.881 777.255 389.512 771.249 401.546 792.276C407.76 803.134 406.144 814.58 406.306 826.571C406.582 842.641 408.079 861.116 394.401 872.561C390.279 876.045 382.626 879.692 377.158 879.983C365.834 880.586 353.796 880.222 342.396 880.186L275.814 880.202L210.009 880.15C198.142 880.235 185.768 881.436 174.088 880.27C164.945 879.388 156.558 874.809 150.871 867.595C146.75 862.46 143.876 854.731 143.654 848.186C143.201 834.796 143.437 821.08 143.478 807.676L143.526 739.617L143.494 517.856L143.481 366.868L143.405 321.889C143.357 303.131 140.412 288.062 156.746 275.234C162.71 270.181 168.933 269.471 176.485 269.336C195.873 268.989 215.796 268.371 235.118 270.491C242.169 276.309 253.999 296.346 259.577 304.83C282.142 339.656 304.251 374.775 325.899 410.177C334.775 424.671 343.407 439.799 352.477 454.101C356.07 449.391 360.779 441.034 363.964 435.744L383.62 403.138C402.534 371.962 421.787 340.992 441.376 310.234C448.94 298.266 457.665 283.586 466.359 272.511C470.623 267.08 502.059 269.276 509.348 269.062C516.67 268.847 530.359 268.507 536.948 270.123C542.586 271.456 547.752 274.302 551.892 278.354C565.609 291.942 561.896 316.662 561.853 334.551C561.788 354.968 561.836 375.386 561.997 395.803C566.846 369.147 571.934 351.436 585.801 327.883C608.875 288.69 643.318 264.069 686.561 251.26C695.732 248.543 703.903 247.029 712.823 244.717C699.008 243.909 680.574 244.472 666.361 244.404C634.171 244.182 601.981 244.129 569.792 244.247L301.856 244.274L217.183 244.272L190.227 244.307C177.926 244.326 167.465 245.465 156.98 237.701C142.081 226.714 145.61 210.819 144.988 195.492C143.905 168.8 143.945 145.981 176.244 141.684ZM660.003 604.035C661.448 625.689 665.465 644.146 682.636 659.18C693.917 669.139 708.746 674.11 723.75 672.962C737.436 671.9 748.846 666.114 759.165 657.394C796.357 623.279 776.257 560.349 724.574 560.032C713.893 559.966 701.899 560.083 691.252 558.774C630.698 547.051 580.528 490.905 566.593 431.916C565.64 427.882 563.269 412.514 561.745 410.29C562.345 416.873 561.726 426.25 561.627 433.191L561.443 471.886L561.552 606.045C592.868 604.971 628.79 604.047 660.003 604.035Z"/><path fill="#FED800" d="M824.14 142.138C852.047 139.466 876.863 159.861 879.647 187.757C882.432 215.653 862.138 240.55 834.254 243.448C806.209 246.362 781.138 225.926 778.337 197.87C775.536 169.814 796.073 144.826 824.14 142.138Z"/></svg>